<svg version="1.1" xmlns="http://www.w3.org/2000/svg" xmlns:xlink="http://www.w3.org/1999/xlink" width="50px" height="50px" viewBox="0,0,256,256"><g fill="#f2f2f2" fill-rule="nonzero" stroke="none" stroke-width="1" stroke-linecap="butt" stroke-linejoin="miter" stroke-miterlimit="10" stroke-dasharray="" stroke-dashoffset="0" font-family="none" font-weight="none" font-size="none" text-anchor="none" style="mix-blend-mode: normal"><g transform="scale(5.12,5.12)"><path d="M37.073,33c-0.441,0 -0.813,0.294 -0.956,0.711c-1.398,4.051 -5.308,6.289 -10.342,6.289c-7.337,0 -11.775,-5.546 -11.775,-15.015c0,-9.439 4.438,-14.985 11.745,-14.985c5.151,0 9.146,2.679 10.46,7.244c0.127,0.44 0.51,0.756 0.967,0.756c0,0 5.535,0.003 7.328,0c0.301,-0.001 0.536,-0.267 0.497,-0.565c-1.172,-8.964 -9.22,-15.435 -19.252,-15.435c-12.796,0 -20.745,8.819 -20.745,23.015c0,14.177 7.961,22.985 20.775,22.985c10.068,0 17.775,-5.785 19.22,-14.414c0.051,-0.304 -0.187,-0.585 -0.496,-0.586z"></path></g></g></svg>